<svg width="39" height="32" viewBox="0 0 39 32" fill="none" xmlns="http://www.w3.org/2000/svg">
<path d="M38.405 4.2283C37.0133 4.84497 35.5183 5.26163 33.9466 5.44997C35.5683 4.47962 36.7816 2.95241 37.36 1.1533C35.8364 2.05828 34.1689 2.69529 32.43 3.03663C31.2606 1.78807 29.7117 0.960509 28.0239 0.682422C26.336 0.404335 24.6035 0.691285 23.0954 1.49872C21.5873 2.30616 20.3879 3.5889 19.6836 5.14781C18.9792 6.70671 18.8092 8.45455 19.2 10.12C16.1128 9.96496 13.0927 9.16255 10.3357 7.76481C7.57868 6.36707 5.14638 4.40523 3.19665 2.00663C2.52998 3.15663 2.14665 4.48997 2.14665 5.90997C2.1459 7.18829 2.4607 8.44704 3.06311 9.57452C3.66552 10.702 4.53691 11.6634 5.59998 12.3733C4.36711 12.3341 3.16143 12.0009 2.08331 11.4016V11.5016C2.08319 13.2945 2.70337 15.0323 3.83862 16.42C4.97387 17.8077 6.55426 18.7598 8.31165 19.115C7.16795 19.4245 5.96887 19.4701 4.80498 19.2483C5.30081 20.791 6.26664 22.14 7.56726 23.1065C8.86788 24.073 10.4382 24.6086 12.0583 24.6383C9.30803 26.7973 5.91146 27.9684 2.41498 27.9633C1.79561 27.9635 1.17677 27.9273 0.561646 27.855C4.11077 30.1369 8.24221 31.348 12.4616 31.3433C26.745 31.3433 34.5533 19.5133 34.5533 9.2533C34.5533 8.91997 34.545 8.5833 34.53 8.24997C36.0488 7.15159 37.3598 5.79146 38.4016 4.2333L38.405 4.2283Z" fill="black"/>
</svg>
