<svg width="38" height="38" viewBox="0 0 38 38" fill="none" xmlns="http://www.w3.org/2000/svg">
<path fill-rule="evenodd" clip-rule="evenodd" d="M11.4417 0.776626C13.3967 0.686626 14.02 0.666626 19 0.666626C23.98 0.666626 24.6034 0.688293 26.5567 0.776626C28.51 0.864959 29.8434 1.17663 31.01 1.62829C32.2317 2.08996 33.34 2.81163 34.2567 3.74496C35.19 4.65996 35.91 5.76663 36.37 6.98996C36.8234 8.15663 37.1334 9.48996 37.2234 11.44C37.3134 13.3983 37.3334 14.0216 37.3334 19C37.3334 23.98 37.3117 24.6033 37.2234 26.5583C37.135 28.5083 36.8234 29.8416 36.37 31.0083C35.91 32.2318 35.1888 33.3403 34.2567 34.2566C33.34 35.19 32.2317 35.91 31.01 36.37C29.8434 36.8233 28.51 37.1333 26.56 37.2233C24.6034 37.3133 23.98 37.3333 19 37.3333C14.02 37.3333 13.3967 37.3116 11.4417 37.2233C9.49169 37.135 8.15835 36.8233 6.99169 36.37C5.76822 35.9099 4.65972 35.1887 3.74335 34.2566C2.81065 33.3411 2.08888 32.2331 1.62835 31.01C1.17669 29.8433 0.866687 28.51 0.776687 26.56C0.686687 24.6016 0.666687 23.9783 0.666687 19C0.666687 14.02 0.688354 13.3966 0.776687 11.4433C0.86502 9.48996 1.17669 8.15663 1.62835 6.98996C2.08956 5.76676 2.81189 4.65881 3.74502 3.74329C4.66009 2.81079 5.76747 2.08903 6.99002 1.62829C8.15669 1.17663 9.49002 0.866626 11.44 0.776626H11.4417ZM26.4084 4.07663C24.475 3.98829 23.895 3.96996 19 3.96996C14.105 3.96996 13.525 3.98829 11.5917 4.07663C9.80335 4.15829 8.83335 4.45663 8.18669 4.70829C7.33169 5.04163 6.72002 5.43663 6.07835 6.07829C5.4701 6.67005 5.00199 7.39043 4.70835 8.18663C4.45669 8.83329 4.15835 9.80329 4.07669 11.5916C3.98835 13.525 3.97002 14.105 3.97002 19C3.97002 23.895 3.98835 24.475 4.07669 26.4083C4.15835 28.1966 4.45669 29.1666 4.70835 29.8133C5.00169 30.6083 5.47002 31.33 6.07835 31.9216C6.67002 32.53 7.39169 32.9983 8.18669 33.2916C8.83335 33.5433 9.80335 33.8416 11.5917 33.9233C13.525 34.0116 14.1034 34.03 19 34.03C23.8967 34.03 24.475 34.0116 26.4084 33.9233C28.1967 33.8416 29.1667 33.5433 29.8134 33.2916C30.6684 32.9583 31.28 32.5633 31.9217 31.9216C32.53 31.33 32.9984 30.6083 33.2917 29.8133C33.5434 29.1666 33.8417 28.1966 33.9234 26.4083C34.0117 24.475 34.03 23.895 34.03 19C34.03 14.105 34.0117 13.525 33.9234 11.5916C33.8417 9.80329 33.5434 8.83329 33.2917 8.18663C32.9584 7.33163 32.5634 6.71996 31.9217 6.07829C31.3299 5.47008 30.6095 5.00198 29.8134 4.70829C29.1667 4.45663 28.1967 4.15829 26.4084 4.07663ZM16.6584 24.6516C17.9661 25.196 19.4223 25.2695 20.7782 24.8595C22.1342 24.4495 23.3057 23.5815 24.0927 22.4037C24.8797 21.2259 25.2334 19.8114 25.0934 18.4018C24.9534 16.9922 24.3284 15.6749 23.325 14.675C22.6854 14.0358 21.912 13.5463 21.0606 13.2419C20.2091 12.9374 19.3007 12.8256 18.4008 12.9143C17.501 13.0031 16.6319 13.2903 15.8564 13.7552C15.0808 14.2201 14.4179 14.8512 13.9155 15.603C13.4131 16.3549 13.0837 17.2088 12.9509 18.1032C12.8181 18.9977 12.8853 19.9104 13.1476 20.7758C13.4099 21.6412 13.8608 22.4376 14.4679 23.1078C15.075 23.778 15.8231 24.3053 16.6584 24.6516ZM12.3367 12.3366C13.2117 11.4616 14.2506 10.7675 15.3939 10.2939C16.5371 9.82033 17.7625 9.57658 19 9.57658C20.2375 9.57658 21.4629 9.82033 22.6062 10.2939C23.7495 10.7675 24.7883 11.4616 25.6634 12.3366C26.5384 13.2117 27.2325 14.2505 27.7061 15.3938C28.1797 16.5371 28.4234 17.7625 28.4234 19C28.4234 20.2375 28.1797 21.4628 27.7061 22.6061C27.2325 23.7494 26.5384 24.7883 25.6634 25.6633C23.8961 27.4305 21.4993 28.4233 19 28.4233C16.5008 28.4233 14.1039 27.4305 12.3367 25.6633C10.5695 23.8961 9.57664 21.4992 9.57664 19C9.57664 16.5007 10.5695 14.1039 12.3367 12.3366ZM30.5134 10.98C30.7302 10.7754 30.9038 10.5294 31.0239 10.2566C31.1439 9.98374 31.208 9.68957 31.2124 9.39151C31.2167 9.09344 31.1612 8.79754 31.0492 8.52131C30.9371 8.24508 30.7707 7.99414 30.56 7.78336C30.3492 7.57257 30.0982 7.40622 29.822 7.29416C29.5458 7.18209 29.2499 7.12659 28.9518 7.13093C28.6537 7.13528 28.3596 7.19938 28.0867 7.31945C27.8139 7.43952 27.5679 7.61312 27.3634 7.82996C26.9655 8.25168 26.7477 8.81183 26.7562 9.39151C26.7646 9.97119 26.9987 10.5248 27.4086 10.9347C27.8186 11.3446 28.3721 11.5787 28.9518 11.5871C29.5315 11.5956 30.0916 11.3778 30.5134 10.98Z" fill="black"/>
</svg>
